<svg xmlns="http://www.w3.org/2000/svg" xmlns:xlink="http://www.w3.org/1999/xlink" viewBox="172.826 166.708 288.621 182.049" width="284.62" height="178.05">
  <path fill="#4b4b4b" d="M458.45 310.66c0 19.37-63.77 35.1-142.31 35.1-78.55 0-142.31-15.73-142.31-35.1s63.76-35.09 142.31-35.09c78.54 0 142.31 15.72 142.31 35.09z" />
  <path fill="#202020" d="M231.14 185.35h170v117.91h-170V185.35z" />
  <path fill="#202020" d="M401.14 303.26c0 11.73-38.09 21.25-85 21.25-46.92 0-85-9.52-85-21.25s38.08-21.25 85-21.25c46.91 0 85 9.52 85 21.25z" />
  <path fill="#4b4b4b" d="M401.14 185.35c0 9.73-38.09 17.63-85 17.63-46.92 0-85-7.9-85-17.63 0-9.74 38.08-17.64 85-17.64 46.91 0 85 7.9 85 17.64z" />
</svg>
